<svg width="40" height="40" viewBox="0 0 40 40" fill="none" xmlns="http://www.w3.org/2000/svg">
<path d="M20 40C31.0457 40 40 31.0457 40 20C40 8.9543 31.0457 0 20 0C8.9543 0 0 8.9543 0 20C0 31.0457 8.9543 40 20 40Z" fill="#121212"/>
<path d="M11.875 9.15625H18.9844C22.026 9.15625 24.3281 9.58333 25.8906 10.4375C27.4531 11.2917 28.2344 12.7917 28.2344 14.9375C28.2344 15.8021 28.0938 16.5833 27.8125 17.2812C27.5417 17.9792 27.1458 18.5521 26.625 19C26.1042 19.4479 25.4688 19.7396 24.7188 19.875V20.0312C25.4792 20.1875 26.1667 20.4583 26.7812 20.8438C27.3958 21.2188 27.8854 21.7708 28.25 22.5C28.625 23.2188 28.8125 24.1771 28.8125 25.375C28.8125 26.7604 28.474 27.9479 27.7969 28.9375C27.1198 29.9271 26.151 30.6875 24.8906 31.2188C23.6406 31.7396 22.151 32 20.4219 32H11.875V9.15625ZM16.7188 18.2031H19.5312C20.9375 18.2031 21.9115 17.9844 22.4531 17.5469C22.9948 17.099 23.2656 16.4427 23.2656 15.5781C23.2656 14.7031 22.9427 14.0781 22.2969 13.7031C21.6615 13.3177 20.651 13.125 19.2656 13.125H16.7188V18.2031ZM16.7188 22.0469V28H19.875C21.3333 28 22.349 27.7188 22.9219 27.1562C23.4948 26.5938 23.7812 25.8385 23.7812 24.8906C23.7812 24.3281 23.6562 23.8333 23.4062 23.4062C23.1562 22.9792 22.7344 22.6458 22.1406 22.4062C21.5573 22.1667 20.75 22.0469 19.7188 22.0469H16.7188Z" fill="white"/>
</svg>
